<svg xmlns="http://www.w3.org/2000/svg" width="176.25" height="21.96" viewBox="0 0 176.25 21.96"><g transform="translate(-11163.5 2365.57)"><g transform="translate(11249.188 -2360.931) rotate(14)"><path d="M11.51.334A1.143,1.143,0,0,0,9.878.351L7.451,2.88,1.53.92.287,2.163,5.222,5.2l-2.5,2.6-1.6-.263L0,8.665l2.355.825.825,2.355L4.3,10.721l-.263-1.6,2.6-2.5,3.039,4.936,1.243-1.243L8.965,4.393l2.528-2.426A1.143,1.143,0,0,0,11.51.334Z" transform="translate(0 0)" fill="#d80212"/></g><path d="M1.5-21.03H8.46V-5.79h8.76V0H1.5ZM34.77,0,33.72-2.97H25.83L24.75,0H17.61l8.88-21.03h7.14L42.18,0ZM27.63-7.95h4.38L29.85-14.1Zm31.89-5.79a23.091,23.091,0,0,0-3.81-1.74,10.724,10.724,0,0,0-3.42-.75q-1.29,0-1.29.93a1.215,1.215,0,0,0,.825,1.11,16.793,16.793,0,0,0,2.625.87,31.533,31.533,0,0,1,3.735,1.26,6.7,6.7,0,0,1,2.6,1.995A5.505,5.505,0,0,1,61.89-6.48,6.1,6.1,0,0,1,60.7-2.655,7,7,0,0,1,57.51-.36a12.7,12.7,0,0,1-4.47.75,18.233,18.233,0,0,1-5.625-.915,16.081,16.081,0,0,1-4.9-2.505l2.58-5.25a14.169,14.169,0,0,0,3.99,2.355,11.141,11.141,0,0,0,4.02.975,2.285,2.285,0,0,0,1.23-.285.973.973,0,0,0,.45-.885,1.246,1.246,0,0,0-.855-1.125A15.289,15.289,0,0,0,51.24-8.1a28.174,28.174,0,0,1-3.705-1.185A6.613,6.613,0,0,1,44.97-11.19a5.2,5.2,0,0,1-1.08-3.45A6.217,6.217,0,0,1,45-18.315a6.99,6.99,0,0,1,3.15-2.415,12.381,12.381,0,0,1,4.74-.84,17.984,17.984,0,0,1,4.905.69,16.033,16.033,0,0,1,4.245,1.83Zm3.21-7.29H81.66v5.49h-6V0H68.7V-15.54H62.73Zm40.14,0h7.38l5.22,10.98,5.19-10.98h7.38V0h-6.09V-11.52l-4.23,9.48h-4.53l-4.23-9.48V0h-6.09Zm28.56,0h6.96V0h-6.96Zm10.35,0h6.96V-5.79h8.76V0H141.78Zm17.91,0h17.79v5.28H166.65v2.58h9.84v5.28h-9.84v2.61h11.1V0H159.69Z" transform="translate(11162 -2344)" fill="#2a2424"/></g></svg>