<svg xmlns="http://www.w3.org/2000/svg" width="352" height="352" viewBox="0 0 352 352"><path d="M110,0H0V110H110ZM88,88H22V22H88Z"/><rect width="22" height="22" transform="translate(44 44)"/><path d="M352,0V110H462V0Zm88,88H374V22h66Z" transform="translate(-110)"/><rect width="22" height="22" transform="translate(286 44)"/><path d="M0,462H110V352H0Zm22-88H88v66H22Z" transform="translate(0 -110)"/><rect width="22" height="22" transform="translate(44 286)"/><rect width="44" height="22" transform="translate(176)"/><path d="M236,98h22V76h22V54H214V32H192V76h44Z" transform="translate(-60 -10)"/><rect width="22" height="22" transform="translate(132 88)"/><path d="M280,160H258v22H192v22h88Z" transform="translate(-60 -50)"/><path d="M22,258H44V236H22V192H0v88H22Z" transform="translate(0 -60)"/><rect width="22" height="22" transform="translate(44 132)"/><path d="M162,280h44V258H184V236H140V192H118v44H96v44h22V258h44Z" transform="translate(-30 -60)"/><rect width="22" height="44" transform="translate(198 176)"/><path d="M258,352H192v22h44v66H192v22h66V440h44V418H258Z" transform="translate(-60 -110)"/><rect width="22" height="22" transform="translate(132 286)"/><rect width="22" height="44" transform="translate(220 242)"/><path d="M450,416H384v66h22V438h44Z" transform="translate(-120 -130)"/><rect width="44" height="22" transform="translate(308 330)"/><rect width="22" height="22" transform="translate(330 242)"/><path d="M374,354h22V288H352v22h22Z" transform="translate(-110 -90)"/><path d="M418,214H396V192H374v22H352v22h88V214h22V192H418Z" transform="translate(-110 -60)"/><rect width="44" height="22" transform="translate(308 198)"/></svg>